# xmcd CD Database Entry
#
# Track frame offsets:
# 150
# 23070
# 42299
# 57501
# 75451
# 92485
# 109975
# 133194
# 153524
# 172888
# 191300
# 210742
# 229409
#
# Disc length: 3265 seconds
#
# Revision: 2
# Processed by: cddbd v1.4PL0 Copyright (c) Steve Scherf et al.
# Submitted via: tcd 2.0b
#
DISCID=a70cbf0d
DTITLE=Khadja nin - Ya pili...
DYEAR=1900
DGENRE=
TTITLE0=Sambolera Mayi Son
TTITLE1=Mama Lusiya
TTITLE2=African Cooperation
TTITLE3=Mwana Wa Mama
TTITLE4=Umenipa Njiya
TTITLE5=Que Pasa En El Mundo
TTITLE6=Haya
TTITLE7=Sous Le Charme
TTITLE8=M'Barik Fall (Batling Siki sept. 1922)
TTITLE9=Rosy
TTITLE10=Save Us
TTITLE11=Fiya Liberte
TTITLE12=La Ballade De Gilles Et Shana
EXTD=
EXTT0=
EXTT1=
EXTT2=
EXTT3=
EXTT4=
EXTT5=
EXTT6=
EXTT7=
EXTT8=
EXTT9=
EXTT10=
EXTT11=
EXTT12=
PLAYORDER=
